<?xml version="1.0" standalone="no"?>
<!DOCTYPE svg PUBLIC "-//W3C//DTD SVG 20010904//EN"
 "http://www.w3.org/TR/2001/REC-SVG-20010904/DTD/svg10.dtd">
<svg version="1.0" xmlns="http://www.w3.org/2000/svg"
 width="315.000000pt" height="81.000000pt" viewBox="0 0 315.000000 81.000000"
 preserveAspectRatio="xMidYMid meet">
<metadata>
Created by potrace 1.16, written by Peter Selinger 2001-2019
</metadata>
<g transform="translate(0.000000,81.000000) scale(0.100000,-0.100000)"
fill="#000000" stroke="none">
<path d="M230 647 c0 -24 -139 -418 -169 -479 l-18 -38 53 0 c51 0 54 1 54 26
0 36 45 77 115 103 111 42 109 42 134 -30 11 -35 21 -71 21 -81 0 -16 9 -18
75 -18 l76 0 -15 29 c-35 68 -65 162 -53 166 38 12 95 25 115 25 21 0 22 -3
22 -91 0 -50 -5 -99 -11 -111 -11 -20 -9 -20 143 -16 172 4 222 18 260 70 12
17 23 51 25 77 5 59 -21 102 -78 131 l-41 22 35 24 c62 42 69 123 16 169 -44
36 -90 45 -237 45 -128 0 -132 -1 -122 -19 5 -11 10 -66 10 -123 l0 -104 -86
-18 c-47 -10 -87 -16 -88 -14 -2 2 -25 65 -51 141 l-49 137 -68 0 c-64 0 -68
-1 -68 -23z m655 -67 c11 -9 15 -26 13 -49 -3 -31 -9 -39 -48 -58 -24 -13 -55
-23 -67 -23 -22 0 -23 4 -23 74 0 63 3 75 18 78 26 6 90 -8 107 -22z m-569
-112 c15 -46 29 -88 31 -94 2 -6 -24 -21 -59 -34 -35 -12 -69 -27 -75 -32 -9
-7 -13 -7 -13 0 0 18 79 242 85 242 2 0 16 -37 31 -82z m564 -98 c42 -22 54
-45 48 -100 -4 -46 -39 -70 -108 -73 l-55 -2 -3 92 c-2 81 -1 92 15 96 38 10
65 6 103 -13z"/>
<path d="M1127 648 c11 -30 10 -478 -1 -500 -7 -16 -1 -18 77 -18 l86 0 -15
35 c-20 49 -20 421 0 470 l15 35 -85 0 c-84 0 -85 0 -77 -22z"/>
<path d="M1800 651 c14 -26 14 -476 0 -502 -10 -18 -6 -19 125 -19 163 0 216
11 260 56 76 76 45 202 -59 237 -4 1 8 19 28 39 31 31 36 42 36 83 0 38 -5 52
-28 75 -40 40 -88 50 -240 50 -128 0 -132 -1 -122 -19z m250 -71 c26 -26 26
-81 0 -105 -11 -10 -42 -20 -70 -23 l-50 -5 0 77 0 76 50 0 c37 0 55 -5 70
-20z m19 -226 c40 -33 44 -92 8 -128 -24 -24 -115 -45 -137 -31 -6 3 -10 44
-10 96 l0 89 54 0 c44 0 60 -5 85 -26z"/>
<path d="M2398 520 c-91 -27 -133 -90 -132 -195 0 -75 15 -114 56 -152 54 -51
168 -67 266 -38 29 9 52 18 52 21 0 2 -6 20 -14 39 l-15 35 -42 -15 c-95 -34
-189 1 -189 69 0 13 21 16 133 18 l132 3 3 34 c5 47 -23 115 -59 145 -48 41
-127 56 -191 36z m114 -89 c9 -9 18 -27 20 -41 3 -25 2 -25 -74 -28 -72 -3
-78 -1 -78 17 0 34 12 53 44 67 35 15 63 10 88 -15z"/>
<path d="M1517 496 c-44 -22 -47 -22 -47 -5 0 17 -8 19 -66 19 -60 0 -65 -2
-58 -17 12 -23 12 -323 0 -345 -7 -16 -1 -18 68 -18 73 0 76 1 66 19 -5 11
-10 73 -10 139 0 113 1 119 23 130 40 20 79 19 101 -4 13 -12 16 -39 16 -124
0 -60 -4 -120 -10 -134 l-10 -26 76 0 c71 0 74 1 64 19 -5 11 -10 79 -10 151
0 150 -10 183 -65 206 -49 20 -85 17 -138 -10z"/>
<path d="M2659 473 c10 -21 47 -107 81 -190 l62 -153 54 0 c42 0 54 3 54 16 0
19 127 333 142 351 8 10 -1 13 -46 13 -52 0 -56 -2 -56 -23 0 -22 -70 -221
-82 -232 -7 -7 -88 207 -88 233 0 20 -5 22 -70 22 l-70 0 19 -37z"/>
</g>
</svg>
